<svg width="46" height="43" viewBox="0 0 46 43" fill="none" xmlns="http://www.w3.org/2000/svg">
<path d="M33.1203 8.42116C33.1203 8.42116 33.1203 8.42116 33.1203 8.32975L33.0518 8.15836C33.0279 8.12199 33.0012 8.0876 32.9718 8.05552C32.9412 8.00715 32.9068 7.9613 32.869 7.9184L32.7661 7.83842L32.5833 7.74701L24.0136 2.45664C23.832 2.34314 23.6222 2.28296 23.408 2.28296C23.1939 2.28296 22.984 2.34314 22.8024 2.45664L14.3013 7.74701L14.1984 7.83842L14.0956 7.9184C14.0577 7.9613 14.0233 8.00715 13.9927 8.05552C13.9634 8.0876 13.9366 8.12199 13.9128 8.15836L13.8442 8.32975C13.8442 8.32975 13.8442 8.32975 13.8442 8.42116C13.833 8.51987 13.833 8.61954 13.8442 8.71825V18.7048C13.8438 18.899 13.8929 19.0901 13.9869 19.26C14.0809 19.4299 14.2166 19.5731 14.3812 19.6761L22.951 24.9664C23.0037 24.999 23.0617 25.0222 23.1223 25.035C23.1223 25.035 23.1795 25.035 23.2138 25.035C23.4071 25.0963 23.6146 25.0963 23.8079 25.035C23.8079 25.035 23.8651 25.035 23.8993 25.035C23.96 25.0222 24.018 24.999 24.0707 24.9664L32.5833 19.6761C32.748 19.5731 32.8837 19.4299 32.9777 19.26C33.0716 19.0901 33.1207 18.899 33.1203 18.7048V8.71825C33.1316 8.61954 33.1316 8.51987 33.1203 8.42116ZM22.2997 21.9499L16.0152 18.0649V10.775L22.2997 14.6485V21.9499ZM23.4423 12.6717L17.0436 8.71825L23.4423 4.77618L29.841 8.71825L23.4423 12.6717ZM30.8694 18.0649L24.5849 21.9499V14.6485L30.8694 10.775V18.0649Z" fill="#39BCF9"/>
<path d="M41.9665 23.4596C41.9665 23.4596 41.9665 23.4596 41.9665 23.3682L41.898 23.1968C41.8741 23.1605 41.8474 23.1261 41.818 23.094C41.7874 23.0456 41.753 22.9998 41.7152 22.9569L41.6123 22.8769L41.4295 22.7855L32.8598 17.4951C32.6782 17.3816 32.4684 17.3214 32.2542 17.3214C32.04 17.3214 31.8302 17.3816 31.6486 17.4951L23.1475 22.7855L23.0446 22.8769L22.9418 22.9569C22.9039 22.9998 22.8695 23.0456 22.8389 23.094C22.8096 23.1261 22.7828 23.1605 22.759 23.1968L22.6904 23.3682C22.6904 23.3682 22.6904 23.3682 22.6904 23.4596C22.6792 23.5584 22.6792 23.658 22.6904 23.7567V33.7433C22.69 33.9375 22.7391 34.1286 22.8331 34.2985C22.927 34.4684 23.0628 34.6116 23.2274 34.7145L31.7971 40.0049C31.8499 40.0375 31.9079 40.0607 31.9685 40.0735C31.9685 40.0735 32.0257 40.0735 32.06 40.0735C32.2533 40.1348 32.4608 40.1348 32.6541 40.0735C32.6541 40.0735 32.7112 40.0735 32.7455 40.0735C32.8062 40.0607 32.8642 40.0375 32.9169 40.0049L41.4295 34.7145C41.5942 34.6116 41.7299 34.4684 41.8239 34.2985C41.9178 34.1286 41.9669 33.9375 41.9665 33.7433V23.7567C41.9778 23.658 41.9778 23.5584 41.9665 23.4596ZM31.1458 36.9884L24.8614 33.1034V25.8135L31.1458 29.687V36.9884ZM32.2885 27.7102L25.8898 23.7567L32.2885 19.8147L38.6872 23.7567L32.2885 27.7102ZM39.7156 33.1034L33.4311 36.9884V29.687L39.7156 25.8135V33.1034Z" fill="#39BCF9"/>
<path d="M23.3896 23.4596C23.3896 23.4596 23.3896 23.4596 23.3896 23.3682L23.321 23.1968C23.2972 23.1605 23.2704 23.1261 23.2411 23.094C23.2105 23.0456 23.1761 22.9998 23.1382 22.9569L23.0354 22.8769L22.8526 22.7855L14.2829 17.4951C14.1013 17.3816 13.8914 17.3214 13.6773 17.3214C13.4631 17.3214 13.2533 17.3816 13.0717 17.4951L4.57052 22.7855L4.46768 22.8769L4.36484 22.9569C4.32697 22.9998 4.29258 23.0456 4.26201 23.094C4.23263 23.1261 4.20588 23.1605 4.18202 23.1968L4.11346 23.3682C4.11346 23.3682 4.11346 23.3682 4.11346 23.4596C4.10223 23.5584 4.10223 23.658 4.11346 23.7567V33.7433C4.11308 33.9375 4.16218 34.1286 4.25615 34.2985C4.35011 34.4684 4.48583 34.6116 4.6505 34.7145L13.2202 40.0049C13.273 40.0375 13.3309 40.0607 13.3916 40.0735C13.3916 40.0735 13.4487 40.0735 13.483 40.0735C13.6763 40.1348 13.8839 40.1348 14.0772 40.0735C14.0772 40.0735 14.1343 40.0735 14.1686 40.0735C14.2293 40.0607 14.2872 40.0375 14.34 40.0049L22.8526 34.7145C23.0172 34.6116 23.153 34.4684 23.2469 34.2985C23.3409 34.1286 23.39 33.9375 23.3896 33.7433V23.7567C23.4008 23.658 23.4008 23.5584 23.3896 23.4596ZM12.5689 36.9884L6.28446 33.1034V25.8135L12.5689 29.687V36.9884ZM13.7115 27.7102L7.31282 23.7567L13.7115 19.8147L20.1103 23.7567L13.7115 27.7102ZM21.1386 33.1034L14.8542 36.9884V29.687L21.1386 25.8135V33.1034Z" fill="#39BCF9"/>
</svg>
